<svg width="25" height="26" viewBox="0 0 25 26" fill="none" xmlns="http://www.w3.org/2000/svg">
<path d="M22.0403 5.61663L19.1116 2.69099C18.7541 2.33354 18.2756 2.13281 17.7696 2.13281C17.2636 2.13281 16.7851 2.33079 16.4276 2.69099L13.2733 5.83935C12.9158 6.1968 12.7151 6.67799 12.7151 7.18393C12.7151 7.69262 12.9131 8.16831 13.2733 8.52851L15.7373 10.995C15.176 12.3027 14.3695 13.4908 13.3613 14.4953C12.352 15.5099 11.1723 16.31 9.86329 16.8765L7.39928 14.41C7.04178 14.0526 6.56327 13.8518 6.05727 13.8518C5.80769 13.8509 5.56043 13.8998 5.32999 13.9957C5.09955 14.0915 4.89056 14.2324 4.71527 14.41L1.55825 17.5584C1.20075 17.9158 1 18.397 1 18.903C1 19.4117 1.198 19.8873 1.55825 20.2475L4.48427 23.1732C5.09477 23.7836 5.93627 24.1328 6.79978 24.1328C6.97853 24.1328 7.15178 24.1191 7.32778 24.0888C10.9688 23.4894 14.5823 21.5509 17.5001 18.6362C20.4151 15.7161 22.3511 12.1031 22.9561 8.45977C23.1293 7.4259 22.7828 6.36178 22.0403 5.61663ZM21.0063 8.13256C20.4701 11.3744 18.7266 14.608 16.1003 17.2339C13.4741 19.8598 10.2428 21.6031 7.00053 22.1393C6.59352 22.2081 6.17552 22.0706 5.87852 21.7764L3.00476 18.903L6.05177 15.8536L9.34629 19.1532L9.37104 19.1779L9.96504 18.958C11.7661 18.2959 13.4016 17.2501 14.7583 15.8931C16.1149 14.5362 17.1603 12.9005 17.8218 11.0994L18.0418 10.5055L14.7198 7.18668L17.7668 4.13731L20.6406 7.0107C20.9376 7.30767 21.0751 7.72561 21.0063 8.13256Z" fill="#49B3F7"/>
</svg>
