<svg width="25" height="26" viewBox="0 0 25 26" fill="none" xmlns="http://www.w3.org/2000/svg">
<path d="M1.39454 12.5537L6.5674 14.4825L8.58392 20.9705C8.6716 21.4089 9.19765 21.4965 9.54835 21.2335L12.4416 18.8663C12.7047 18.6032 13.143 18.6032 13.4937 18.8663L18.6666 22.6363C19.0173 22.8993 19.5433 22.724 19.631 22.2856L23.4887 3.8738C23.5764 3.43542 23.138 2.99705 22.6996 3.1724L1.39454 11.4139C0.868487 11.5892 0.868487 12.3783 1.39454 12.5537ZM8.32091 13.5181L18.4912 7.29314C18.6666 7.20546 18.8419 7.46849 18.6666 7.55616L10.3374 15.3593C10.0744 15.6223 9.81137 15.973 9.81137 16.4114L9.54835 18.5156C9.54835 18.7786 9.10997 18.8663 9.0223 18.5156L7.97018 14.6579C7.70716 14.2195 7.88253 13.6934 8.32091 13.5181Z" fill="white"/>
</svg>
