<svg width="25" height="26" viewBox="0 0 25 26" fill="none" xmlns="http://www.w3.org/2000/svg">
<g clip-path="url(#clip0_7135_7028)">
<path d="M18.4987 14.4981C18.45 14.4747 16.6274 13.5772 16.3036 13.4606C16.1713 13.4132 16.0297 13.3668 15.879 13.3668C15.6329 13.3668 15.4262 13.4895 15.2652 13.7304C15.0831 14.001 14.532 14.6452 14.3617 14.8377C14.3394 14.8631 14.3091 14.8934 14.2909 14.8934C14.2746 14.8934 13.9925 14.7773 13.9071 14.7402C11.952 13.8909 10.468 11.8486 10.2645 11.5042C10.2355 11.4547 10.2342 11.4322 10.234 11.4322C10.2411 11.406 10.3069 11.3401 10.3408 11.3061C10.4401 11.2079 10.5476 11.0784 10.6517 10.9532C10.7001 10.8944 10.7492 10.8362 10.7988 10.7784C10.9497 10.6028 11.017 10.4664 11.0949 10.3085L11.1357 10.2264C11.326 9.84839 11.1635 9.52939 11.1109 9.42639C11.0678 9.34019 10.2983 7.48288 10.2165 7.28775C10.0197 6.81689 9.75973 6.59766 9.39845 6.59766C9.36492 6.59766 9.39845 6.59766 9.25786 6.60358C9.08668 6.61081 8.15445 6.73353 7.74228 6.99335C7.30518 7.26892 6.56573 8.14733 6.56573 9.69214C6.56573 11.0825 7.44804 12.3952 7.82686 12.8945C7.83627 12.9071 7.85356 12.9326 7.87864 12.9693C9.32937 15.088 11.1379 16.6581 12.9713 17.3905C14.7363 18.0955 15.5721 18.177 16.0472 18.177H16.0473C16.247 18.177 16.4068 18.1614 16.5478 18.1475L16.6372 18.139C17.247 18.0849 18.5869 17.3906 18.8917 16.5436C19.1318 15.8765 19.1951 15.1476 19.0354 14.883C18.926 14.7032 18.7374 14.6127 18.4987 14.4981Z" fill="white"/>
<path d="M12.7218 0.132812C5.95101 0.132812 0.442569 5.59986 0.442569 12.3197C0.442569 14.4932 1.02422 16.6207 2.12609 18.4827L0.0170819 24.7039C-0.00224792 24.7608 -0.0054165 24.8219 0.00792892 24.8805C0.0212743 24.939 0.0506101 24.9927 0.0926704 25.0356C0.134731 25.0785 0.187865 25.1088 0.246159 25.1233C0.304452 25.1378 0.365617 25.1358 0.422845 25.1176L6.90986 23.0562C8.68502 24.0046 10.6914 24.5053 12.7219 24.5053C19.492 24.5054 24.9999 19.0389 24.9999 12.3197C24.9999 5.59986 19.492 0.132812 12.7218 0.132812ZM12.7218 21.9667C10.8112 21.9667 8.96059 21.415 7.36984 20.3712C7.32948 20.3447 7.28372 20.3276 7.2359 20.321C7.18807 20.3144 7.13938 20.3186 7.09338 20.3333L3.84379 21.3663L4.89281 18.2714C4.90953 18.222 4.91412 18.1693 4.9062 18.1178C4.89827 18.0663 4.87806 18.0174 4.84728 17.9753C3.63591 16.3202 2.99557 14.3645 2.99557 12.3197C2.99557 6.9997 7.35872 2.67145 12.7217 2.67145C18.084 2.67145 22.4467 6.9997 22.4467 12.3197C22.4468 17.6391 18.0842 21.9667 12.7218 21.9667Z" fill="white"/>
</g>
<defs>
<clipPath id="clip0_7135_7028">
<rect width="25" height="25" fill="white" transform="translate(0 0.132812)"/>
</clipPath>
</defs>
</svg>
